<svg xmlns:rdf="http://www.w3.org/1999/02/22-rdf-syntax-ns#" xmlns="http://www.w3.org/2000/svg" height="53.438" viewBox="0 0 190.3125 53.4375" width="190.31" version="1.1" xmlns:cc="http://creativecommons.org/ns#" xmlns:dc="http://purl.org/dc/elements/1.1/">
<path fill-rule="evenodd" d="m61.704 2.2842 0.06401 7.3644c-24.161 2.388-36.764 6.9627-36.764 6.9627 12.391-3.0346 24.974-4.8768 36.812-5.9993l0.04202 0.85812 6.4469 5.3683-0.13943-6.7151c49.16-3.5791 88.229 6.0348 88.229 6.0348s-22.051-7.957-65.469-7.957c-8.5375 0-15.837 0.4466-22.745 0.96913l-0.09608-1.0508zm12.637 35.883v-6.2687l-10.689-12.055h5.3043l6.4295 7.3557h1.9288l6.4295-7.3557h5.2239l-10.609 12.055v6.2687zm16.636 0v-18.324h7.635l11.573 13.341h1.2859v-13.341h4.1792c0.56352 0.23448 1.203-0.06275 1.5672 1.5672v15.551c0.0118 0.57488-0.48758 1.1871-1.2055 1.2055h-7.2733l-11.01-13.1h-1.4466v13.1zm34.8-18.324h13.823c3.2057 0 5.7865 2.5808 5.7865 5.7865v6.751c0 3.2057-2.5808 5.7865-5.7865 5.7865h-13.823c-3.2057 0-5.7865-2.5808-5.7865-5.7865v-6.751c0-3.2057 2.5808-5.7865 5.7865-5.7865zm2.3307 4.2595h9.162c1.3802 0 2.4914 1.1112 2.4914 2.4914v5.1436c0 1.3802-1.1112 2.4914-2.4914 2.4914h-9.162c-1.3802 0-2.4914-1.1112-2.4914-2.4914v-5.1436c0-1.3802 1.1112-2.4914 2.4914-2.4914zm25.047 14.053h-4.7216v-17.361c0.12386-0.78038 0.52626-0.7251 0.86396-0.86396h12.667c5.2487 0 9.1489 1.9614 9.1489 5.6238s-3.5544 5.2756-3.5544 5.2756c2.4617 1.7912 3.479 4.4204 3.479 7.3241h-5.0443v-2.9711c-0.0421-1.6934-1.3573-1.7932-3.9204-1.7932h-5.563v-2.7099c0-0.91088 0.35038-1.26 1.3472-1.26l4.1128-0.05683c3.8232 0 3.8606-1.7065 3.8606-2.6511 0-0.94463-0.17712-2.5909-3.8576-2.6008l-8.8385-0.02376zm-100.96-6.8373h8.6789l-4.3019-7.4512zm-9.0005 6.8488 10.125-18.324h6.0147l10.125 18.324h-4.6123l-1.682-2.9133h-13.094l-1.682 2.9133zm-20.185 0h-4.7216v-17.36c0.12386-0.78038 0.52626-0.7251 0.86396-0.86396h12.667c5.2487 0 9.1489 1.9614 9.1489 5.6238s-3.5544 5.2756-3.5544 5.2756c2.4617 1.7912 3.4789 4.4204 3.4789 7.3241h-5.0443v-2.9711c-0.04212-1.6934-1.3573-1.7932-3.9204-1.7932h-5.563v-2.7099c0-0.91088 0.35038-1.26 1.3472-1.26l4.1128-0.05683c3.8233 0 3.8606-1.7065 3.8606-2.6511 0-0.94463-0.17711-2.5909-3.8576-2.6008l-8.8385-0.02376z"/>
</svg>
