<?xml version="1.0" encoding="UTF-8" standalone="no"?>
<!-- Created with Inkscape (http://www.inkscape.org/) -->

<svg
   xmlns:dc="http://purl.org/dc/elements/1.1/"
   xmlns:cc="http://creativecommons.org/ns#"
   xmlns:rdf="http://www.w3.org/1999/02/22-rdf-syntax-ns#"
   xmlns:svg="http://www.w3.org/2000/svg"
   xmlns="http://www.w3.org/2000/svg"
   xmlns:sodipodi="http://sodipodi.sourceforge.net/DTD/sodipodi-0.dtd"
   xmlns:inkscape="http://www.inkscape.org/namespaces/inkscape"
   id="svg2"
   version="1.1"
   inkscape:version="0.91 r13725"
   width="190.3125"
   height="53.4375"
   viewBox="0 0 190.3125 53.4375"
   sodipodi:docname="raynor-logo.src.svg"
   inkscape:export-filename="C:\Users\ajanso05\src\chicagogaragedoors\img\brands\path4184.png"
   inkscape:export-xdpi="121.26316"
   inkscape:export-ydpi="121.26316">
  <metadata
     id="metadata8">
    <rdf:RDF>
      <cc:Work
         rdf:about="">
        <dc:format>image/svg+xml</dc:format>
        <dc:type
           rdf:resource="http://purl.org/dc/dcmitype/StillImage" />
        <dc:title></dc:title>
      </cc:Work>
    </rdf:RDF>
  </metadata>
  <defs
     id="defs6" />
  <sodipodi:namedview
     pagecolor="#ffffff"
     bordercolor="#666666"
     borderopacity="1"
     objecttolerance="10"
     gridtolerance="10"
     guidetolerance="10"
     inkscape:pageopacity="0"
     inkscape:pageshadow="2"
     inkscape:window-width="1600"
     inkscape:window-height="848"
     id="namedview4"
     showgrid="false"
     showguides="true"
     inkscape:guide-bbox="true"
     inkscape:zoom="4.3991563"
     inkscape:cx="82.423517"
     inkscape:cy="41.987881"
     inkscape:window-x="-8"
     inkscape:window-y="-8"
     inkscape:window-maximized="1"
     inkscape:current-layer="svg2">
    <sodipodi:guide
       position="26.280485,15.270006"
       orientation="0,1"
       id="guide4142" />
    <sodipodi:guide
       position="75.546347,33.594014"
       orientation="0,1"
       id="guide4144" />
    <sodipodi:guide
       position="18.163271,27.807485"
       orientation="1,0"
       id="guide4199" />
    <sodipodi:guide
       position="43.077492,27.325275"
       orientation="1,0"
       id="guide4201" />
    <sodipodi:guide
       position="40.827175,30.861487"
       orientation="1,0"
       id="guide4203" />
    <sodipodi:guide
       position="74.421189,20.735061"
       orientation="1,0"
       id="guide4205" />
    <sodipodi:guide
       position="59.311919,28.289696"
       orientation="1,0"
       id="guide4207" />
    <sodipodi:guide
       position="88.726774,17.841797"
       orientation="1,0"
       id="guide4209" />
    <sodipodi:guide
       position="90.816354,17.841797"
       orientation="1,0"
       id="guide4211" />
    <sodipodi:guide
       position="117.17721,27.164538"
       orientation="1,0"
       id="guide4213" />
    <sodipodi:guide
       position="125.05332,27.968222"
       orientation="1,0"
       id="guide4215" />
    <sodipodi:guide
       position="145.30617,39.059069"
       orientation="1,0"
       id="guide4217" />
    <sodipodi:guide
       position="148.36017,39.862753"
       orientation="1,0"
       id="guide4219" />
    <sodipodi:guide
       position="171.18481,17.359586"
       orientation="1,0"
       id="guide4221" />
    <sodipodi:guide
       position="56.900866,0"
       orientation="0,1"
       id="guide4231" />
  </sodipodi:namedview>
  <path
     style="fill-opacity:0.50196078;fill-rule:nonzero;stroke:none;stroke-width:0.2;stroke-miterlimit:4;stroke-dasharray:none;stroke-opacity:1"
     d="m 74.30753,31.550278 14.419223,-11.70679 14.775557,33.59401 -21.352367,0 -7.842413,-15.291059 z"
     id="rect4234"
     inkscape:connector-curvature="0"
     sodipodi:nodetypes="cccccc" />
  <path
     style="fill-opacity:0.50196081;fill-rule:nonzero;stroke:none;stroke-width:0.2;stroke-miterlimit:4;stroke-dasharray:none;stroke-opacity:1;"
     d="M 59.3125 19.683594 L 46.035156 34.800781 L 40.828125 24.666016 L 18.324219 21.771484 L 18.240234 38.328125 L 27.566406 53.597656 L 55.695312 53.597656 L 55.634766 53.478516 L 78.279297 53.478516 L 59.3125 19.683594 z "
     id="rect4223" />
  <path
     id="path4184"
     style="fill-rule:evenodd;stroke:none;stroke-width:0.2;stroke-linecap:butt;stroke-linejoin:miter;stroke-miterlimit:4;stroke-dasharray:none;stroke-opacity:1"
     d="m 61.704136,2.284214 0.06401,7.364412 c -24.161047,2.38804 -36.764237,6.962702 -36.764237,6.962702 12.391186,-3.034576 24.974063,-4.876824 36.811964,-5.999251 l 0.04202,0.858125 6.446914,5.368305 -0.139429,-6.715083 c 49.160392,-3.5790732 88.229142,6.034779 88.229142,6.034779 0,0 -22.05134,-7.9570311 -65.468743,-7.9570311 -8.537499,0 -15.836641,0.4466018 -22.744774,0.9691269 l -0.09608,-1.0507812 z m 12.636684,35.88328 0,-6.26874 -10.689004,-12.055268 5.304318,0 6.429476,7.355733 1.928843,0 6.429477,-7.355733 5.223949,0 -10.608636,12.055268 0,6.26874 z m 16.636271,0 0,-18.324008 7.635003,0 11.573056,13.341163 1.2859,0 0,-13.341163 4.17916,0 c 0.56352,0.234482 1.20301,-0.06275 1.56718,1.567185 l 0,15.551296 c 0.0118,0.574878 -0.48758,1.187118 -1.20553,1.205527 l -7.27334,0 -11.010479,-13.100058 -1.446632,0 0,13.100058 z m 34.799529,-18.324007 13.82338,0 c 3.20574,0 5.78653,2.580791 5.78653,5.786526 l 0,6.750956 c 0,3.205736 -2.58079,5.786527 -5.78653,5.786527 l -13.82338,0 c -3.20573,0 -5.78652,-2.580791 -5.78652,-5.786527 l 0,-6.750956 c 0,-3.205735 2.58079,-5.786526 5.78652,-5.786526 z m 2.3307,4.259527 9.162,0 c 1.38025,0 2.49143,1.111174 2.49143,2.491422 l 0,5.143582 c 0,1.380247 -1.11118,2.491422 -2.49143,2.491422 l -9.162,0 c -1.38025,0 -2.49142,-1.111175 -2.49142,-2.491422 l 0,-5.143582 c 0,-1.380248 1.11117,-2.491422 2.49142,-2.491422 z m 25.04669,14.053007 -4.72165,0 0,-17.361015 c 0.12386,-0.780378 0.52626,-0.725103 0.86396,-0.86396 l 12.66739,0 c 5.2487,0 9.1489,1.961407 9.1489,5.623823 0,3.662416 -3.55443,5.275646 -3.55443,5.275646 2.4617,1.791186 3.47895,4.42041 3.47895,7.324078 l -5.04426,0 0,-2.971123 c -0.0421,-1.693394 -1.3573,-1.793207 -3.92044,-1.793207 l -5.56304,0 0,-2.709936 c 0,-0.910879 0.35038,-1.260034 1.34723,-1.260034 l 4.11281,-0.05683 c 3.82325,0 3.86059,-1.706451 3.86059,-2.651077 0,-0.944626 -0.17712,-2.590933 -3.85761,-2.600828 l -8.8385,-0.02376 z m -100.963437,-6.837326 8.67887,0 -4.301942,-7.451184 z m -9.000473,6.848799 10.124738,-18.324008 6.014721,0 10.124738,18.324008 -4.612318,0 -1.681986,-2.913285 -13.093574,0 -1.681986,2.913285 z m -20.18463,0 -4.721647,0 0,-17.359587 c 0.123857,-0.780378 0.526264,-0.725103 0.863961,-0.86396 l 12.667393,0 c 5.248698,0 9.148899,1.961407 9.148899,5.623823 0,3.662416 -3.55443,5.275646 -3.55443,5.275646 2.461695,1.791186 3.478943,4.42041 3.478943,7.324078 l -5.044258,0 0,-2.971123 c -0.04212,-1.693394 -1.357302,-1.793207 -3.920438,-1.793207 l -5.56304,0 0,-2.709936 c 0,-0.910879 0.350381,-1.260034 1.347228,-1.260034 l 4.112808,-0.05683 c 3.823256,0 3.860592,-1.706451 3.860592,-2.651077 0,-0.944626 -0.177114,-2.590933 -3.857605,-2.600828 l -8.838498,-0.02376 z" />
</svg>
