<svg xmlns:rdf="http://www.w3.org/1999/02/22-rdf-syntax-ns#" xmlns="http://www.w3.org/2000/svg" height="3cm" width="6cm" version="1.1" xmlns:cc="http://creativecommons.org/ns#" xmlns:dc="http://purl.org/dc/elements/1.1/" viewBox="0 0 212.59842 106.29921">
<g transform="translate(0 -946.06)">
<g transform="matrix(.64867 0 0 .66583 -32.97 544.04)">
<g fill="#808080" transform="matrix(.19576 0 0 .19576 4.0919 616.77)" fill-opacity=".50196">
<path d="m506.98 164.7-74.381 45.801-36.877 79.188 20.574 84.893 63.916 59.543 87.096 6.666 76.379-42.387 33.254-80.775-16.711-85.738-66.543-56.588-86.707-10.602zm3.6797 57.057 53.201 3.6934 42.379 32.375 12.928 51.74-17.693 50.309-45.213 28.283-53.314-1.2812-40.871-34.26-15.256-51.102 19.953-49.455 43.887-30.303z" transform="translate(0 308.27)"/>
<path d="m537.14 459.46-80.85 40.939-63.92 64.24 13.953 89.543 41.344 80.643 89.473 14.4 89.471-14.4 41.344-80.643 13.953-89.543-63.92-64.24-80.848-40.939zm-4.8906 58.883 50.6 22.377 41.025 37.125-5.6465 55.039-22.631 50.488-54.09 11.637-55.01-5.9199-27.783-47.846-11.367-54.146 36.918-41.209 47.984-27.545z"/>
</g>
<g fill-opacity=".49851" fill="#438080" fill-rule="evenodd">
<path d="m68.571 732.36 27.143-40 45.714 5.7143 11.429 42.857 102.86-1.4286 28.571-45.714 34.286 1.4286 21.429 38.571 25.714-4.2857 12.857-47.143-87.143-21.429-50-57.143-132.86 21.429-20 41.429-32.857 22.857z"/>
<path d="m253.68 615.08-140 4.2852-15.715 50-41.428 1.4297-5.7148 41.428 21.428 15.715v-24.285l50-10 20 14.285v27.143l117.14-1.4277 7.1445-28.572 35.713-14.285 22.857 11.428 2.8574 25.715 41.428-7.1426 1.4297-44.285-88.572-5.7148-28.57-55.715zm-58.672 13.848 46.047 3.3691 11.982 30.656-56.348 4.459-1.6816-38.484zm-20.723 5.4082-1.4277 38.572-54.287-4.2852 12.857-31.43 42.857-2.8574z"/>
<path d="m125.11 629.36-7.1426 37.145 34.285 28.57 4.2871 31.43 35.713-1.4297-5.7129-92.857-61.43-2.8574zm51.451 3.709-1.4277 38.572-54.287-4.2852 12.857-31.43 42.857-2.8574z"/>
<path d="m190.99 621.19 5.9746 98.68 52.857 2.8574 2.8555-30 10-22.857-18.57-45.469-53.117-3.2109zm5.4121 6.3418 46.047 3.3711 11.982 30.656-56.348 4.459-1.6816-38.486z"/>
</g>
<g fill="#808080" transform="matrix(.19576 0 0 .19576 192.34 616.77)" fill-opacity=".50196">
<path d="m506.98 164.7-74.381 45.801-36.877 79.188 20.574 84.893 63.916 59.543 87.096 6.666 76.379-42.387 33.254-80.775-16.711-85.738-66.543-56.588-86.707-10.602zm3.6797 57.057 53.201 3.6934 42.379 32.375 12.928 51.74-17.693 50.309-45.213 28.283-53.314-1.2812-40.871-34.26-15.256-51.102 19.953-49.455 43.887-30.303z" transform="translate(0 308.27)"/>
<path d="m537.14 459.46-80.85 40.939-63.92 64.24 13.953 89.543 41.344 80.643 89.473 14.4 89.471-14.4 41.344-80.643 13.953-89.543-63.92-64.24-80.848-40.939zm-4.8906 58.883 50.6 22.377 41.025 37.125-5.6465 55.039-22.631 50.488-54.09 11.637-55.01-5.9199-27.783-47.846-11.367-54.146 36.918-41.209 47.984-27.545z"/>
</g>
</g>
</g>
</svg>
