<svg xmlns="http://www.w3.org/2000/svg" xml:space="preserve" version="1.1" viewBox="0 0 17.716534 31.889762">
<path d="m0.50178 13.91 0.62155 2.4875 2.7422 2.6086 0.43599 1.9938 0.81012-0.41381 1.4162 0.66957-1.0713 3.3687 3.6309 2.8805 0.5786 3.4706 1.0537 0.31822 0.72207-1.3281 2.1778 0.83229-0.046-1.7185 1.7508-0.49113-0.42052-0.91004 1.0708-2.7191-0.3316-0.50897 0.63186-0.12661 1.4828-2.5007-0.69973-2.1595 0.54595-1.1624 0.0331-13.391-1.2938-3.0679 0.13531-1.2232-12.23-0.09559 2.0532 2.2496-0.07775 1.7563-1.2044 1.6255-2.5107 0.62071-0.29123 0.97674 0.71777 0.81699-0.06873 0.96187-0.69286 1.4407-1.2083 0.64068-0.46305 2.0831z"/>
</svg>
