<svg xmlns:rdf="http://www.w3.org/1999/02/22-rdf-syntax-ns#" xmlns="http://www.w3.org/2000/svg" xml:space="preserve" viewBox="5.0 -10.0 100.0 135.0" version="1.1" xmlns:cc="http://creativecommons.org/ns#" xmlns:dc="http://purl.org/dc/elements/1.1/">
<metadata><rdf:RDF><cc:Work rdf:about="Garage Door Repair professionals"><dc:creator>Arturs Jansons</dc:creator><cc:license rdf:resource="http://creativecommons.org/licenses/by/3.0/" /></cc:Work></rdf:RDF></metadata>
<g transform="matrix(.26939 0 0 .26939 41.879 32.618)">
	<path d="m62.934 77.905s20.628 27.382 31.523 16.388c10.893-10.995-17.028-31.352-17.028-31.352 2.877-12.907-7.396 0.251-13.641-5.344-7.85-7.034 2.761-16.537 13.114-14.658 25.708 4.667 22.148-22.873 22.148-22.873-21.262 23.98-38.582 4.175-17.983-14.27 0 0-24.291-3.0452-21.485 19.331 1.9892 15.861-6.8955 35.392-35.821-9.8576 0 0-8.0119-10.622-13.212-5.8305-5.1996 4.7918 4.0388 13.135 4.0388 13.135 47.262 29.203 21.576 37.906 6.016 35.641-21.229-3.09-18.057 22.336-18.057 22.336 18.721-22.779 39.501-1.137 17.226 16.134 0 0 24.087 6.0256 22.275-17.271-0.99673-12.813 7.7219-22.624 14.711-15.034 5.6973 6.1871-8.3161 16.342 6.176 13.525zm-192.03 5.784-13.97-20.968c194.46-135.61 187.52-128.4 196.38-128.53 8.855-0.143-1.824-7.232 187.64 128.69l-14.45 20.648-173.58-121.19zm114.82 132.32h126.01l-0.12903 16.801h-125.88zm0-33.601h126.01l-0.0837 16.862-125.92-0.0615zm0-33.601h126.01l-0.015 16.856-125.99-0.0554zm210.01 109.2c-20.443-0.16701-40.92 0.33646-61.342-0.25597-13.317-3.118-9.5281-18.337-10.061-28.411v-93.138h-151.21c-0.16908 37.244 0.3392 74.522-0.25597 111.74-3.118 13.317-18.337 9.5281-28.411 10.061-15.85-0.5619-31.994 1.185-47.641-0.99013-11.696-5.8048-6.5577-20.28-7.6956-30.689v-132.13l25.201-16.801v155.41h33.601c0.16908-37.244-0.3392-74.522 0.25597-111.74 3.118-13.317 18.337-9.5281 28.411-10.061 54.289 0.17 108.61-0.34043 162.88 0.25597 13.317 3.118 9.5281 18.337 10.061 28.411v93.138h33.601v-155.41l25.201 16.801c-0.17006 51.244 0.34051 102.52-0.25597 153.75-1.0797 5.7254-6.5137 10.166-12.345 10.061z"/>
</g></svg>