<?xml version="1.0" encoding="UTF-8" standalone="no"?>
<svg
   xmlns:dc="http://purl.org/dc/elements/1.1/"
   xmlns:cc="http://creativecommons.org/ns#"
   xmlns:rdf="http://www.w3.org/1999/02/22-rdf-syntax-ns#"
   xmlns:svg="http://www.w3.org/2000/svg"
   xmlns="http://www.w3.org/2000/svg"
   xmlns:sodipodi="http://sodipodi.sourceforge.net/DTD/sodipodi-0.dtd"
   xmlns:inkscape="http://www.inkscape.org/namespaces/inkscape"
   version="1.1"
   id="Layer_1"
   x="0px"
   y="0px"
   width="100px"
   height="100px"
   viewBox="5.0 -10.0 100.0 135.0"
   enable-background="new 0 0 100 100"
   xml:space="preserve"
   inkscape:version="0.91 r13725"
   sodipodi:docname="logo.src.svg"><metadata
   id="metadata21"><rdf:RDF><cc:Work
       rdf:about=""><dc:format>image/svg+xml</dc:format><dc:type
         rdf:resource="http://purl.org/dc/dcmitype/StillImage" /><dc:title></dc:title></cc:Work></rdf:RDF></metadata><defs
   id="defs19" /><sodipodi:namedview
   pagecolor="#ffffff"
   bordercolor="#666666"
   borderopacity="1"
   objecttolerance="10"
   gridtolerance="10"
   guidetolerance="10"
   inkscape:pageopacity="0"
   inkscape:pageshadow="2"
   inkscape:window-width="1600"
   inkscape:window-height="848"
   id="namedview17"
   showgrid="false"
   showguides="true"
   inkscape:guide-bbox="true"
   inkscape:zoom="5.6568543"
   inkscape:cx="69.549255"
   inkscape:cy="23.198144"
   inkscape:window-x="-8"
   inkscape:window-y="-8"
   inkscape:window-maximized="1"
   inkscape:current-layer="Layer_1"><sodipodi:guide
     position="57.982756,67.060239"
     orientation="0,1"
     id="guide4359" /><sodipodi:guide
     position="55.507882,89.970499"
     orientation="0,1"
     id="guide4361" /><sodipodi:guide
     position="62.5625,40.035937"
     orientation="1,0"
     id="guide4443" /><sodipodi:guide
     position="37.233591,38.70581"
     orientation="0,1"
     id="guide4445" /><sodipodi:guide
     position="47.4375,47.75625"
     orientation="0,1"
     id="guide4447" /></sodipodi:namedview>





<g
   id="Captions"
   transform="translate(21.874702,87.186598)">
</g><g
   id="Your_Icon"
   transform="matrix(0.26939209,0,0,0.26939209,41.878968,32.618435)">
	
</g><g
   transform="matrix(0.26939209,0,0,0.26939209,41.878968,32.618435)"
   id="g4376">
	
</g><g
   id="g4390"
   transform="matrix(0.26939209,0,0,0.26939209,41.878968,32.618435)">
	
</g><g
   transform="matrix(0.26939209,0,0,0.26939209,41.878968,32.618435)"
   id="g4404">
	
</g><g
   id="g4431"><g
     id="g4422"><g
       id="g4418"
       transform="matrix(0.26939209,0,0,0.26939209,41.878968,32.618435)">
	<path
   id="path4420"
   style="stroke:none;stroke-opacity:1;fill-opacity:1"
   d="m 62.934397,77.90459 c 0,0 20.628079,27.38167 31.522674,16.387634 C 105.35167,83.298183 77.428987,62.941192 77.428987,62.941192 80.305727,50.033528 70.033024,63.192101 63.788342,57.596996 55.938251,50.563478 66.549248,41.059933 76.902261,42.939129 102.61495,47.606292 99.049772,20.066356 99.049772,20.066356 77.788139,44.046477 60.46783,24.241215 81.066963,5.7964882 c 0,0 -24.29132,-3.0451918 -21.485011,19.3306048 1.989244,15.861018 -6.895489,35.392081 -35.821169,-9.857626 0,0 -8.011936,-10.6223012 -13.2115,-5.8305079 -5.1995635,4.7917939 4.038783,13.1346589 4.038783,13.1346589 47.261993,29.203151 21.576027,37.90553 6.015996,35.641164 C -0.62540457,55.125374 2.5470859,80.551384 2.5470859,80.551384 21.268471,57.771843 42.047689,79.413579 19.772564,96.684567 c 0,0 24.087368,6.025593 22.275125,-17.270988 -0.996734,-12.813121 7.721921,-22.62352 14.710729,-15.03386 5.697288,6.187103 -8.316053,16.342044 6.175979,13.524871 z M -129.09569,83.688641 -143.07387,62.721378 C 51.386726,-72.890811 44.448828,-65.673891 53.30714,-65.812957 62.165453,-65.952023 51.486269,-73.04094 240.9497,62.880985 L 226.4969,83.529038 52.923028,-37.658567 Z m 114.815939,132.322269 126.005201,0 -0.12903,16.8007 -125.876171,0 z m 0,-33.60139 126.005201,0 -0.0837,16.8622 -125.921461,-0.0615 z m 0,-33.60139 126.005201,0 -0.015,16.85607 -125.990171,-0.0554 z M 195.72892,258.01264 c -20.44324,-0.16701 -40.92019,0.33646 -61.34204,-0.25597 -13.31678,-3.11799 -9.52806,-18.3369 -10.0609,-28.41066 l 0,-93.1384 -151.20625,0 c -0.169078,37.24383 0.339196,74.52171 -0.255973,111.74413 -3.117982,13.31678 -18.336892,9.52806 -28.410659,10.0609 -15.85027,-0.5619 -31.993732,1.18502 -47.641258,-0.99013 -11.69611,-5.80485 -6.55774,-20.28032 -7.69558,-30.6889 l 0,-132.127733 25.201042,-16.800694 0,155.406417 33.601388,0 c 0.169078,-37.24383 -0.339197,-74.52172 0.255973,-111.74413 3.117983,-13.31678 18.336897,-9.52806 28.410663,-10.0609 54.289341,0.17 108.612886,-0.34043 162.880794,0.25597 13.31678,3.11798 9.52806,18.3369 10.0609,28.41066 l 0,93.1384 33.60139,0 0,-155.406417 25.20104,16.800694 c -0.17006,51.244363 0.34051,102.522933 -0.25597,153.745863 -1.07968,5.72539 -6.51374,10.1664 -12.34456,10.0609 z"
   inkscape:connector-curvature="0"
   sodipodi:nodetypes="czcssccscscsccsscccscccccccccccccccccccccccccccccccccccccccccc" />
</g></g></g></svg>