<?xml version="1.0" encoding="UTF-8" standalone="no"?>
<svg
   xmlns:dc="http://purl.org/dc/elements/1.1/"
   xmlns:cc="http://creativecommons.org/ns#"
   xmlns:rdf="http://www.w3.org/1999/02/22-rdf-syntax-ns#"
   xmlns:svg="http://www.w3.org/2000/svg"
   xmlns="http://www.w3.org/2000/svg"
   xmlns:sodipodi="http://sodipodi.sourceforge.net/DTD/sodipodi-0.dtd"
   xmlns:inkscape="http://www.inkscape.org/namespaces/inkscape"
   version="1.1"
   id="Layer_1"
   x="0px"
   y="0px"
   width="100px"
   height="100px"
   viewBox="5.0 -10.0 100.0 135.0"
   enable-background="new 0 0 100 100"
   xml:space="preserve"
   inkscape:version="0.91 r13725"
   sodipodi:docname="logo.svg"><metadata
   id="metadata21"><rdf:RDF><cc:Work
       rdf:about=""><dc:format>image/svg+xml</dc:format><dc:type
         rdf:resource="http://purl.org/dc/dcmitype/StillImage" /><dc:title></dc:title></cc:Work></rdf:RDF></metadata><defs
   id="defs19" /><sodipodi:namedview
   pagecolor="#ffffff"
   bordercolor="#666666"
   borderopacity="1"
   objecttolerance="10"
   gridtolerance="10"
   guidetolerance="10"
   inkscape:pageopacity="0"
   inkscape:pageshadow="2"
   inkscape:window-width="1600"
   inkscape:window-height="848"
   id="namedview17"
   showgrid="false"
   showguides="true"
   inkscape:guide-bbox="true"
   inkscape:zoom="1"
   inkscape:cx="-120.20649"
   inkscape:cy="229.15196"
   inkscape:window-x="-8"
   inkscape:window-y="-8"
   inkscape:window-maximized="1"
   inkscape:current-layer="Layer_1"><sodipodi:guide
     position="57.982756,67.060239"
     orientation="0,1"
     id="guide4359" /><sodipodi:guide
     position="55.507882,89.970499"
     orientation="0,1"
     id="guide4361" /></sodipodi:namedview>
<path
   d="m 94.606792,102.125 -15.840909,0 c -1.874885,0 -3.39448,-1.5196 -3.39448,-3.394481 l 0,-29.418831 -40.733767,0 0,29.418831 c 0,1.874881 -1.519595,3.394481 -3.39448,3.394481 l -15.840909,0 c -1.874885,0 -3.394481,-1.5196 -3.394481,-3.394481 l 0,-40.733766 6.788961,-4.525974 0,41.86526 9.051948,0 0,-29.418831 c 0,-1.874885 1.519596,-3.394481 3.394481,-3.394481 l 47.522727,0 c 1.874885,0 3.394481,1.519596 3.394481,3.394481 l 0,29.418831 9.051948,0 0,-41.86526 6.788961,4.525974 0,40.733766 c 0,1.874881 -1.519596,3.394481 -3.394481,3.394481 z"
   id="path3"
   inkscape:connector-curvature="0" />
<rect
   x="38.032116"
   y="72.706169"
   width="33.944805"
   height="4.5259738"
   id="rect5" />
<rect
   x="38.032116"
   y="81.758118"
   width="33.944805"
   height="4.5259738"
   id="rect7" />
<rect
   x="38.032116"
   y="90.810066"
   width="33.944805"
   height="4.5259738"
   id="rect9" />
<path
   d="M 7.1016104,55.163493 3.336,49.515078 54.253208,15.570273 c 1.140545,-0.760364 2.625065,-0.760364 3.76561,0 l 48.770092,33.987802 -3.89347,5.562422 -46.759427,-32.646982 z"
   id="path11"
   inkscape:connector-curvature="0"
   sodipodi:nodetypes="ccsccccc" />
<g
   id="Captions"
   transform="translate(21.874702,87.186598)">
</g><g
   id="Your_Icon"
   transform="matrix(0.26939209,0,0,0.26939209,41.878968,32.618435)">
	<path
   inkscape:connector-curvature="0"
   d="m 63.091,78.531 18.304,18.276 c 4.256,4.256 11.156,4.256 15.413,0 4.256,-4.257 4.257,-11.157 0,-15.414 L 78.504,63.118 78.212,63.411 c 1.439,-1.439 1.439,-3.774 0,-5.214 -1.439,-1.44 -3.773,-1.439 -5.213,0 l -2.788,2.788 -7.9,-7.884 10.254,-10.254 c 7.271,1.94 15.349,0.064 21.053,-5.639 5.345,-5.345 7.331,-12.773 5.966,-19.669 L 85.11,32.012 71.606,28.394 67.987,14.89 82.46,0.417 C 75.564,-0.949 68.135,1.037 62.79,6.382 57.087,12.086 55.211,20.163 57.151,27.435 L 46.881,37.705 26.558,17.425 21.934,9.719 12.686,3.553 4.979,11.26 l 6.165,9.247 7.706,4.624 20.323,20.28 -11.739,11.74 C 20.163,55.211 12.085,57.086 6.381,62.791 1.038,68.135 -0.949,75.563 0.417,82.46 L 14.89,67.987 28.394,71.605 32.012,85.109 17.54,99.582 c 6.896,1.366 14.324,-0.62 19.669,-5.965 5.704,-5.704 7.58,-13.782 5.64,-21.053 l 11.756,-11.756 7.9,7.883 -4.334,4.334 c -1.439,1.439 -1.439,3.773 0,5.213 1.318,1.32 3.389,1.431 4.834,0.332 0.132,-0.1 0.086,-0.039 0.086,-0.039 z"
   id="path4164" />
</g><path
   inkscape:connector-curvature="0"
   id="spring-5"
   d="m 446.603,188.638 c -0.742,-2.594 -3.45,-4.086 -6.028,-3.346 l -45.51,13.003 c -2.587,0.742 -4.089,3.44 -3.343,6.028 0.61,2.136 2.568,3.533 4.683,3.533 0.451,0 0.892,-0.063 1.343,-0.19 l 45.51,-13.003 c 2.591,-0.736 4.089,-3.434 3.345,-6.025 z m -6.025,-16.35 -45.509,13.004 c -2.587,0.739 -4.089,3.438 -3.343,6.025 0.606,2.14 2.565,3.536 4.679,3.536 0.451,0 0.892,-0.063 1.343,-0.19 l 45.51,-13.003 c 2.591,-0.743 4.089,-3.441 3.346,-6.028 -0.737,-2.59 -3.445,-4.079 -6.026,-3.344 z m 6.025,-9.655 c -0.742,-2.59 -3.45,-4.089 -6.028,-3.348 l -45.51,13.003 c -2.587,0.741 -4.089,3.439 -3.343,6.027 0.61,2.14 2.568,3.536 4.683,3.536 0.451,0 0.892,-0.063 1.343,-0.19 l 45.51,-13.004 c 2.591,-0.736 4.089,-3.437 3.345,-6.024 z m -54.877,2.679 c 0.606,2.138 2.565,3.536 4.679,3.536 0.451,0 0.892,-0.062 1.343,-0.188 l 45.51,-13.003 c 2.591,-0.741 4.089,-3.443 3.346,-6.027 -0.742,-2.594 -3.45,-4.083 -6.028,-3.348 l -45.511,13.003 c -2.584,0.738 -4.085,3.437 -3.339,6.027 z m 50.192,32.793 c -2.691,0 -4.876,2.184 -4.876,4.876 0,2.691 2.185,4.876 4.876,4.876 2.692,0 4.876,-2.185 4.876,-4.876 0,-2.693 -2.184,-4.876 -4.876,-4.876 z m -45.51,-42.259 c 2.692,0 4.876,-2.184 4.876,-4.876 0,-2.692 -2.184,-4.876 -4.876,-4.876 -2.692,0 -4.876,2.184 -4.876,4.876 0,2.692 2.184,4.876 4.876,4.876 z m 7.565,-1.967 27.25,-7.786 -28.386,0 c 1.041,1.359 1.698,3.033 1.698,4.876 0,1.027 -0.206,2.004 -0.562,2.91 z m 30.38,46.188 -27.253,7.79 28.393,0 c -1.048,-1.359 -1.702,-3.028 -1.702,-4.876 0,-1.029 0.21,-2.003 0.562,-2.914 z" /><g
   id="g4348"
   transform="matrix(1.4704808,0,0,1.4704808,-29.98613,-27.727349)"><g
     transform="matrix(0.34862903,0,0,0.30812421,146.91881,42.431444)"
     id="Your_Icon-3"><path
       sodipodi:nodetypes="sccccccccccccscccccccccccccccccccscccccccccccc"
       inkscape:connector-curvature="0"
       id="path4164-2"
       transform="matrix(3.8723109,0,0,4.38135,-457.27348,-170.16334)"
       d="m 146.56445,29.816406 c -0.69394,-0.04893 -1.40803,0.101065 -2.05273,0.47461 l -20.16406,11.640625 0.59961,0.882812 4.87109,4.296875 2.16992,-1.251953 0.85938,-0.759766 c -0.501,-1.659762 -0.0177,-3.502805 1.45507,-4.804687 1.38032,-1.219944 3.29923,-1.673104 5.08008,-1.361328 l -3.73828,3.302734 0.39063,1.28711 12.08984,-6.980469 c 1.72948,-0.994842 2.32021,-3.204543 1.32031,-4.929688 -0.62445,-1.079739 -1.72428,-1.715325 -2.88086,-1.796875 z m -10.61328,22.705078 0.26758,0.236328 0.7207,-0.636718 c 0.37187,-0.328438 0.97409,-0.328666 1.34571,0 0.37161,0.328666 0.37161,0.861015 0,1.189453 l 0.0762,-0.06641 4.26367,3.761718 5.33594,-3.080078 c 1.72948,-0.994841 2.32021,-3.204543 1.32031,-4.929687 -0.99913,-1.727583 -3.21439,-2.318384 -4.93359,-1.322266 z m 1.85742,7.265625 -3.42773,-3.02539 c 0,0 0.0126,-0.01306 -0.0215,0.0098 -0.37317,0.250836 -0.90964,0.225106 -1.25,-0.07617 -0.37162,-0.328665 -0.37162,-0.861015 0,-1.189453 l 1.12109,-0.990234 -0.68555,-0.605469 -4.22461,2.439453 c 0.10636,1.383421 -0.42652,2.797956 -1.62304,3.855469 -1.38032,1.219944 -3.29923,1.673104 -5.08008,1.361328 l 3.73828,-3.302734 -0.0527,-0.171875 -12.31835,7.111328 c -4.89215,2.717561 -0.94486,8.783975 3.61328,6.251953 z m -10.39843,-11.285156 -4.45508,-3.927734 -1.66016,-0.88086 -7.14844,4.126953 c -4.89214,2.717563 -0.9429,8.783976 3.61524,6.251954 z" /></g><g
     id="g4340"><g
       id="g4309"><path
         inkscape:connector-curvature="0"
         id="path4258"
         d="m 183.23503,77.87613 c -2.691,0 -4.876,2.184 -4.876,4.876 0,2.691 2.185,4.876 4.876,4.876 2.692,0 4.876,-2.185 4.876,-4.876 0,-2.693 -2.184,-4.876 -4.876,-4.876 z" /><path
         id="path4256"
         d="m 143.46253,40.173377 c 2.692,0 4.876,-2.184 4.876,-4.876 0,-2.692 -2.184,-4.876 -4.876,-4.876 -2.692,0 -4.876,2.184 -4.876,4.876 0,2.692 2.184,4.876 4.876,4.876 z"
         inkscape:connector-curvature="0" /><path
         sodipodi:nodetypes="ccccsc"
         inkscape:connector-curvature="0"
         id="spring"
         d="m 175.67003,79.83813 -14.27256,0.150034 -12.98044,7.639966 28.393,0 c -1.048,-1.359 -1.702,-3.028 -1.702,-4.876 0,-1.029 0.21,-2.003 0.562,-2.914 z" /><path
         sodipodi:nodetypes="ccccsc"
         inkscape:connector-curvature="0"
         id="spring-2"
         d="m 151.12475,38.1075 14.27256,-0.150034 12.98044,-7.639966 -28.393,0 c 1.048,1.359 1.702,3.028 1.702,4.876 0,1.029 -0.21,2.003 -0.562,2.914 z" /></g><path
       style="color:#000000;font-style:normal;font-variant:normal;font-weight:normal;font-stretch:normal;font-size:medium;line-height:normal;font-family:sans-serif;text-indent:0;text-align:start;text-decoration:none;text-decoration-line:none;text-decoration-style:solid;text-decoration-color:#000000;letter-spacing:normal;word-spacing:normal;text-transform:none;direction:ltr;block-progression:tb;writing-mode:lr-tb;baseline-shift:baseline;text-anchor:start;white-space:normal;clip-rule:nonzero;display:inline;overflow:visible;visibility:visible;opacity:1;isolation:auto;mix-blend-mode:normal;color-interpolation:sRGB;color-interpolation-filters:linearRGB;solid-color:#000000;solid-opacity:1;fill-opacity:1;fill-rule:nonzero;stroke:none;stroke-width:1;stroke-linecap:butt;stroke-linejoin:miter;stroke-miterlimit:4;stroke-dasharray:none;stroke-dashoffset:0;stroke-opacity:1;color-rendering:auto;image-rendering:auto;shape-rendering:auto;text-rendering:auto;enable-background:accumulate"
       d="m 175.75195,42.068359 c -2.54532,-0.445612 -5.2838,0.196611 -7.27343,1.955079 -2.02455,1.789643 -2.73343,4.327784 -2.16407,6.662109 l -3.05273,2.697265 -6.70703,-5.916015 -1.63867,-2.414063 -3.63477,-2.142578 -3.30469,2.921875 2.49414,3.308594 2.73242,1.449219 6.61719,5.833984 -3.54101,3.128906 c -2.60136,-0.516228 -5.42581,0.04739 -7.4668,1.851563 -1.9889,1.758147 -2.75193,4.244084 -2.23633,6.544922 l 0.18555,0.824219 5.48437,-4.847657 4.17579,0.988281 1.08593,3.580079 -5.58398,4.933593 1.02344,0.179688 c 2.54531,0.445611 5.28578,-0.19663 7.27539,-1.955078 2.02546,-1.790139 2.73431,-4.329424 2.16406,-6.664063 l 3.56836,-3.154297 1.99804,1.763672 -1.08593,0.958985 c -0.7027,0.621053 -0.70252,1.734145 0,2.355468 0.53387,0.472563 1.25807,0.498378 1.89648,0.253907 l 0.19727,0.177734 0.002,-0.0039 6.00195,5.294922 c 1.68469,1.488963 4.35014,1.48889 6.03516,0 1.6846,-1.489231 1.68502,-4.008792 0,-5.498047 L 174.8145,61.67774 c 0.21888,-0.588623 0.20699,-1.243815 -0.29687,-1.689453 -0.70274,-0.621521 -1.7776,-0.62077 -2.48047,0 l -0.64063,0.566407 -2,-1.761719 3.02149,-2.669922 c 2.6019,0.516911 5.42727,-0.04759 7.46875,-1.851563 1.9896,-1.758449 2.75349,-4.244448 2.23828,-6.544922 l -0.18555,-0.826171 -5.48633,4.847656 -4.17578,-0.988281 -1.08593,-3.578125 5.58398,-4.935547 -1.02344,-0.177735 z m -1.45507,1.035157 -4.24805,3.753906 1.43945,4.74414 5.23828,1.240235 4.3711,-3.861328 c 0.0514,1.630007 -0.44129,3.275601 -1.87305,4.541015 -1.85384,1.638155 -4.5083,2.187247 -6.89258,1.625 l -0.25195,-0.05859 -4.19336,3.705078 3.50976,3.095703 1.30274,-1.150391 c 0.30119,-0.266014 0.85368,-0.265876 1.1543,0 0.30075,0.265997 0.30056,0.591773 0,0.857422 l 0.6621,0.746094 0,0.002 -0.22851,0.203125 6.05078,5.337891 c 1.2832,1.134116 1.28292,2.865862 0,4 -1.28322,1.133863 -3.42811,1.13379 -4.71094,0 l -6.32422,-5.578125 0,-0.002 c 0,-5e-6 -0.009,-0.007 -0.01,-0.0078 l -0.0449,-0.03906 -0.002,0.002 c -0.002,-0.0012 -0.002,-7.32e-4 -0.004,-0.002 -0.0495,-0.03891 -0.10735,-0.08395 -0.10742,-0.08398 -1.1e-4,-5.3e-5 -0.15219,-0.04685 -0.15235,-0.04687 -1.5e-4,-2.1e-5 -0.10331,-0.002 -0.10351,-0.002 -4.2e-4,3.1e-5 -0.0885,0.01386 -0.11329,0.02148 -0.0495,0.01524 -0.0699,0.02587 -0.0879,0.03516 -0.0359,0.01856 -0.0524,0.02964 -0.0723,0.04297 l 0,0.002 c -0.30726,0.206535 -0.80092,0.181148 -1.07617,-0.0625 -0.30085,-0.266074 -0.30066,-0.591695 0,-0.857421 l 1.93554,-1.710938 -3.50976,-3.095703 -4.66992,4.126953 0.0937,0.308594 c 0.62095,2.056907 0.0335,4.328355 -1.82032,5.966797 -1.41064,1.24675 -3.28804,1.693965 -5.15429,1.669922 l 4.24609,-3.753907 -1.4375,-4.74414 -5.24023,-1.240235 -4.3711,3.861328 c -0.0515,-1.630147 0.44185,-3.275861 1.87305,-4.541015 1.8538,-1.638703 4.50826,-2.189207 6.89258,-1.626953 l 0.25195,0.06055 4.71094,-4.164063 -7.55274,-6.662109 -2.64062,-1.400391 -1.80469,-2.392578 2.06836,-1.828125 2.81445,1.660156 1.58399,2.332031 7.46484,6.583985 4.15039,-3.669922 -0.0918,-0.306641 c -0.62098,-2.057259 -0.0352,-4.328345 1.81835,-5.966796 1.41112,-1.247166 3.28927,-1.694414 5.15626,-1.669922 z m -5.05469,23.154296 0.006,0 -0.004,-0.0039 -0.002,0.0039 z m -0.002,0 -0.65039,0.730469 c -0.0272,-0.02139 -0.0586,-0.0469 -0.0586,-0.04687 7e-5,8.1e-5 -0.0957,-0.183698 -0.0957,-0.183594 3e-5,1.05e-4 -0.0195,-0.150515 -0.0195,-0.15039 -1e-5,1.24e-4 0.0137,-0.09584 0.0137,-0.0957 -7e-5,2.8e-4 0.0334,-0.09993 0.0332,-0.09961 -1.5e-4,3.17e-4 0.0186,-0.03572 0.0254,-0.04687 0.0272,-0.04462 0.0449,-0.06055 0.0449,-0.06055 l 0.70703,-0.04688 z"
       id="path4164-2-9"
       inkscape:connector-curvature="0" /></g></g></svg>